<svg width="314" height="72" viewBox="0 0 314 72" fill="none" xmlns="http://www.w3.org/2000/svg">
<g clip-path="url(#clip0_26320_123884)">
<path fill-rule="evenodd" clip-rule="evenodd" d="M241.594 72H265.703V48H241.594V72Z" fill="#9A0E13" fill-opacity="0.3"/>
<path fill-rule="evenodd" clip-rule="evenodd" d="M241.594 24H265.703V0H241.594V24Z" fill="#9A0E13" fill-opacity="0.3"/>
<path fill-rule="evenodd" clip-rule="evenodd" d="M217.477 48H241.588V24H217.477V48Z" fill="#9A0E13" fill-opacity="0.3"/>
<path fill-rule="evenodd" clip-rule="evenodd" d="M193.367 72H217.476V48H193.367V72Z" fill="#9A0E13" fill-opacity="0.3"/>
<path fill-rule="evenodd" clip-rule="evenodd" d="M193.367 24H217.476V0H193.367V24Z" fill="#9A0E13" fill-opacity="0.3"/>
<path fill-rule="evenodd" clip-rule="evenodd" d="M145.133 24H169.244V0H145.133V24Z" fill="#9A0E13" fill-opacity="0.3"/>
<path fill-rule="evenodd" clip-rule="evenodd" d="M169.258 48H193.369V24H169.258V48Z" fill="#9A0E13" fill-opacity="0.3"/>
<path fill-rule="evenodd" clip-rule="evenodd" d="M289.812 72H313.921V48H289.812V72Z" fill="#9A0E13" fill-opacity="0.3"/>
<path fill-rule="evenodd" clip-rule="evenodd" d="M289.812 24H313.921V0H289.812V24Z" fill="#9A0E13" fill-opacity="0.3"/>
<path fill-rule="evenodd" clip-rule="evenodd" d="M265.703 48H289.814V24H265.703V48Z" fill="#9A0E13" fill-opacity="0.3"/>
<path fill-rule="evenodd" clip-rule="evenodd" d="M96.9531 72H121.062V48H96.9531V72Z" fill="#9A0E13" fill-opacity="0.3"/>
<path fill-rule="evenodd" clip-rule="evenodd" d="M96.9531 24H121.062V0H96.9531V24Z" fill="#9A0E13" fill-opacity="0.3"/>
<path fill-rule="evenodd" clip-rule="evenodd" d="M72.8438 48H96.955V24H72.8438V48Z" fill="#9A0E13" fill-opacity="0.3"/>
<path fill-rule="evenodd" clip-rule="evenodd" d="M48.7344 72H72.8457V48H48.7368V72H48.7344Z" fill="#9A0E13" fill-opacity="0.3"/>
<path fill-rule="evenodd" clip-rule="evenodd" d="M0.5 72H24.6113V48H0.5V72Z" fill="#9A0E13" fill-opacity="0.3"/>
<path fill-rule="evenodd" clip-rule="evenodd" d="M48.7344 24H72.8457V0H48.7368V24H48.7344Z" fill="#9A0E13" fill-opacity="0.3"/>
<path fill-rule="evenodd" clip-rule="evenodd" d="M0.5 24H24.6113V0H0.5V24Z" fill="#9A0E13" fill-opacity="0.3"/>
<path fill-rule="evenodd" clip-rule="evenodd" d="M24.625 48H48.7339V24H24.625V48Z" fill="#9A0E13" fill-opacity="0.3"/>
<path fill-rule="evenodd" clip-rule="evenodd" d="M145.172 72H169.281V48H145.172V72Z" fill="#9A0E13" fill-opacity="0.3"/>
<path fill-rule="evenodd" clip-rule="evenodd" d="M121.062 48H145.174V24H121.062V48Z" fill="#9A0E13" fill-opacity="0.3"/>
</g>
<defs>
<clipPath id="clip0_26320_123884">
<rect width="313.42" height="72" fill="white" transform="translate(0.5)"/>
</clipPath>
</defs>
</svg>
