<svg width="270" height="72" viewBox="0 0 270 72" fill="none" xmlns="http://www.w3.org/2000/svg">
<g clip-path="url(#clip0_26288_133009)">
<path fill-rule="evenodd" clip-rule="evenodd" d="M218.594 72H242.703V48H218.594V72Z" fill="#9A0E13" fill-opacity="0.3"/>
<path fill-rule="evenodd" clip-rule="evenodd" d="M218.594 24H242.703V0H218.594V24Z" fill="#9A0E13" fill-opacity="0.3"/>
<path fill-rule="evenodd" clip-rule="evenodd" d="M194.477 48H218.588V24H194.477V48Z" fill="#9A0E13" fill-opacity="0.3"/>
<path fill-rule="evenodd" clip-rule="evenodd" d="M170.367 72H194.476V48H170.367V72Z" fill="#9A0E13" fill-opacity="0.3"/>
<path fill-rule="evenodd" clip-rule="evenodd" d="M170.367 24H194.476V0H170.367V24Z" fill="#9A0E13" fill-opacity="0.3"/>
<path fill-rule="evenodd" clip-rule="evenodd" d="M122.133 24H146.244V0H122.133V24Z" fill="#9A0E13" fill-opacity="0.3"/>
<path fill-rule="evenodd" clip-rule="evenodd" d="M146.258 48H170.369V24H146.258V48Z" fill="#9A0E13" fill-opacity="0.3"/>
<path fill-rule="evenodd" clip-rule="evenodd" d="M266.812 72H290.921V48H266.812V72Z" fill="#9A0E13" fill-opacity="0.3"/>
<path fill-rule="evenodd" clip-rule="evenodd" d="M266.812 24H290.921V0H266.812V24Z" fill="#9A0E13" fill-opacity="0.3"/>
<path fill-rule="evenodd" clip-rule="evenodd" d="M242.703 48H266.814V24H242.703V48Z" fill="#9A0E13" fill-opacity="0.3"/>
<path fill-rule="evenodd" clip-rule="evenodd" d="M73.9531 72H98.062V48H73.9531V72Z" fill="#9A0E13" fill-opacity="0.3"/>
<path fill-rule="evenodd" clip-rule="evenodd" d="M73.9531 24H98.062V0H73.9531V24Z" fill="#9A0E13" fill-opacity="0.3"/>
<path fill-rule="evenodd" clip-rule="evenodd" d="M49.8438 48H73.955V24H49.8438V48Z" fill="#9A0E13" fill-opacity="0.3"/>
<path fill-rule="evenodd" clip-rule="evenodd" d="M25.7344 72H49.8457V48H25.7368V72H25.7344Z" fill="#9A0E13" fill-opacity="0.3"/>
<path fill-rule="evenodd" clip-rule="evenodd" d="M-22.5 72H1.61129V48H-22.5V72Z" fill="#9A0E13" fill-opacity="0.3"/>
<path fill-rule="evenodd" clip-rule="evenodd" d="M25.7344 24H49.8457V0H25.7368V24H25.7344Z" fill="#9A0E13" fill-opacity="0.3"/>
<path fill-rule="evenodd" clip-rule="evenodd" d="M-22.5 24H1.61129V0H-22.5V24Z" fill="#9A0E13" fill-opacity="0.3"/>
<path fill-rule="evenodd" clip-rule="evenodd" d="M1.625 48H25.7339V24H1.625V48Z" fill="#9A0E13" fill-opacity="0.3"/>
<path fill-rule="evenodd" clip-rule="evenodd" d="M122.172 72H146.281V48H122.172V72Z" fill="#9A0E13" fill-opacity="0.3"/>
<path fill-rule="evenodd" clip-rule="evenodd" d="M98.0625 48H122.174V24H98.0625V48Z" fill="#9A0E13" fill-opacity="0.3"/>
</g>
<defs>
<clipPath id="clip0_26288_133009">
<rect width="313.42" height="72" fill="white" transform="translate(-22.5)"/>
</clipPath>
</defs>
</svg>
