<svg width="392" height="270" viewBox="0 0 392 270" fill="none" xmlns="http://www.w3.org/2000/svg">
<g clip-path="url(#clip0_26786_140481)">
<path fill-rule="evenodd" clip-rule="evenodd" d="M301.539 30H331.692V0H301.539V30Z" fill="#9A0E13"/>
<path fill-rule="evenodd" clip-rule="evenodd" d="M211.07 60H241.227V30H211.07V60Z" fill="#9A0E13"/>
<path fill-rule="evenodd" clip-rule="evenodd" d="M361.844 30H391.997V0H361.844V30Z" fill="#9A0E13"/>
<path fill-rule="evenodd" clip-rule="evenodd" d="M331.688 60H361.844V30H331.688V60Z" fill="#9A0E13"/>
<path fill-rule="evenodd" clip-rule="evenodd" d="M120.641 30H150.794V0H120.641V30Z" fill="#9A0E13"/>
<path fill-rule="evenodd" clip-rule="evenodd" d="M0 30H30.1564V0H0V30Z" fill="#9A0E13"/>
<path fill-rule="evenodd" clip-rule="evenodd" d="M30.1719 60H60.3253V30H30.1719V60Z" fill="#9A0E13"/>
<path fill-rule="evenodd" clip-rule="evenodd" d="M150.789 60H180.945V30H150.789V60Z" fill="#9A0E13"/>
</g>
<g clip-path="url(#clip1_26786_140481)">
<path fill-rule="evenodd" clip-rule="evenodd" d="M271.383 120H301.539V90H271.383V120Z" fill="#9A0E13"/>
<path fill-rule="evenodd" clip-rule="evenodd" d="M180.898 90H211.055V60H180.898V90Z" fill="#9A0E13"/>
<path fill-rule="evenodd" clip-rule="evenodd" d="M211.07 120H241.227V90H211.07V120Z" fill="#9A0E13"/>
<path fill-rule="evenodd" clip-rule="evenodd" d="M361.844 90H391.997V60H361.844V90Z" fill="#9A0E13"/>
<path fill-rule="evenodd" clip-rule="evenodd" d="M331.688 120H361.844V90H331.688V120Z" fill="#9A0E13"/>
<path fill-rule="evenodd" clip-rule="evenodd" d="M120.641 90H150.794V60H120.641V90Z" fill="#9A0E13"/>
<path fill-rule="evenodd" clip-rule="evenodd" d="M90.4844 120H120.641V90H90.4844V120Z" fill="#9A0E13"/>
<path fill-rule="evenodd" clip-rule="evenodd" d="M0 90H30.1564V60H0V90Z" fill="#9A0E13"/>
<path fill-rule="evenodd" clip-rule="evenodd" d="M30.1719 120H60.3253V90H30.1719V120Z" fill="#9A0E13"/>
<path fill-rule="evenodd" clip-rule="evenodd" d="M150.789 120H180.945V90H150.789V120Z" fill="#9A0E13"/>
</g>
<g clip-path="url(#clip2_26786_140481)">
<path fill-rule="evenodd" clip-rule="evenodd" d="M301.539 210H331.692V180H301.539V210Z" fill="#9A0E13"/>
<path fill-rule="evenodd" clip-rule="evenodd" d="M301.539 150H331.692V120H301.539V150Z" fill="#9A0E13"/>
<path fill-rule="evenodd" clip-rule="evenodd" d="M271.383 180H301.539V150H271.383V180Z" fill="#9A0E13"/>
<path fill-rule="evenodd" clip-rule="evenodd" d="M241.227 210H271.38V180H241.227V210Z" fill="#9A0E13"/>
<path fill-rule="evenodd" clip-rule="evenodd" d="M241.227 150H271.38V120H241.227V150Z" fill="#9A0E13"/>
<path fill-rule="evenodd" clip-rule="evenodd" d="M180.898 150H211.055V120H180.898V150Z" fill="#9A0E13"/>
<path fill-rule="evenodd" clip-rule="evenodd" d="M211.07 180H241.227V150H211.07V180Z" fill="#9A0E13"/>
<path fill-rule="evenodd" clip-rule="evenodd" d="M361.844 210H391.997V180H361.844V210Z" fill="#9A0E13"/>
<path fill-rule="evenodd" clip-rule="evenodd" d="M361.844 150H391.997V120H361.844V150Z" fill="#9A0E13"/>
<path fill-rule="evenodd" clip-rule="evenodd" d="M331.688 180H361.844V150H331.688V180Z" fill="#9A0E13"/>
<path fill-rule="evenodd" clip-rule="evenodd" d="M120.641 210H150.794V180H120.641V210Z" fill="#9A0E13"/>
<path fill-rule="evenodd" clip-rule="evenodd" d="M120.641 150H150.794V120H120.641V150Z" fill="#9A0E13"/>
<path fill-rule="evenodd" clip-rule="evenodd" d="M90.4844 180H120.641V150H90.4844V180Z" fill="#9A0E13"/>
<path fill-rule="evenodd" clip-rule="evenodd" d="M60.3281 210H90.4845V180H60.3312V210H60.3281Z" fill="#9A0E13"/>
<path fill-rule="evenodd" clip-rule="evenodd" d="M0 210H30.1564V180H0V210Z" fill="#9A0E13"/>
<path fill-rule="evenodd" clip-rule="evenodd" d="M60.3281 150H90.4845V120H60.3312V150H60.3281Z" fill="#9A0E13"/>
<path fill-rule="evenodd" clip-rule="evenodd" d="M0 150H30.1564V120H0V150Z" fill="#9A0E13"/>
<path fill-rule="evenodd" clip-rule="evenodd" d="M30.1719 180H60.3253V150H30.1719V180Z" fill="#9A0E13"/>
<path fill-rule="evenodd" clip-rule="evenodd" d="M180.945 210H211.099V180H180.945V210Z" fill="#9A0E13"/>
<path fill-rule="evenodd" clip-rule="evenodd" d="M150.789 180H180.945V150H150.789V180Z" fill="#9A0E13"/>
</g>
<g clip-path="url(#clip3_26786_140481)">
<path fill-rule="evenodd" clip-rule="evenodd" d="M301.539 270H331.692V240H301.539V270Z" fill="#9A0E13"/>
<path fill-rule="evenodd" clip-rule="evenodd" d="M271.383 240H301.539V210H271.383V240Z" fill="#9A0E13"/>
<path fill-rule="evenodd" clip-rule="evenodd" d="M241.227 270H271.38V240H241.227V270Z" fill="#9A0E13"/>
<path fill-rule="evenodd" clip-rule="evenodd" d="M211.07 240H241.227V210H211.07V240Z" fill="#9A0E13"/>
<path fill-rule="evenodd" clip-rule="evenodd" d="M361.844 270H391.997V240H361.844V270Z" fill="#9A0E13"/>
<path fill-rule="evenodd" clip-rule="evenodd" d="M331.688 240H361.844V210H331.688V240Z" fill="#9A0E13"/>
<path fill-rule="evenodd" clip-rule="evenodd" d="M120.641 270H150.794V240H120.641V270Z" fill="#9A0E13"/>
<path fill-rule="evenodd" clip-rule="evenodd" d="M90.4844 240H120.641V210H90.4844V240Z" fill="#9A0E13"/>
<path fill-rule="evenodd" clip-rule="evenodd" d="M60.3281 270H90.4845V240H60.3312V270H60.3281Z" fill="#9A0E13"/>
<path fill-rule="evenodd" clip-rule="evenodd" d="M0 270H30.1564V240H0V270Z" fill="#9A0E13"/>
<path fill-rule="evenodd" clip-rule="evenodd" d="M30.1719 240H60.3253V210H30.1719V240Z" fill="#9A0E13"/>
<path fill-rule="evenodd" clip-rule="evenodd" d="M180.945 270H211.099V240H180.945V270Z" fill="#9A0E13"/>
<path fill-rule="evenodd" clip-rule="evenodd" d="M150.789 240H180.945V210H150.789V240Z" fill="#9A0E13"/>
</g>
<defs>
<clipPath id="clip0_26786_140481">
<rect width="392" height="60" fill="white"/>
</clipPath>
<clipPath id="clip1_26786_140481">
<rect width="392" height="60" fill="white" transform="translate(0 60)"/>
</clipPath>
<clipPath id="clip2_26786_140481">
<rect width="392" height="90" fill="white" transform="translate(0 120)"/>
</clipPath>
<clipPath id="clip3_26786_140481">
<rect width="392" height="60" fill="white" transform="translate(0 210)"/>
</clipPath>
</defs>
</svg>
